<svg id="Capa_1" enable-background="new 0 0 497 497" height="512" viewBox="0 0 497 497" width="512" xmlns="http://www.w3.org/2000/svg"><g><path d="m.001 430.733v33.134c0 18.299 14.834 33.133 33.133 33.133h430.732c18.299 0 33.133-14.834 33.133-33.132v-33.134h-496.998z" fill="#cdd2e1"/><path d="m473.999 430.733v33.134c0 18.298-14.834 33.132-33.133 33.132h23c18.299 0 33.133-14.834 33.133-33.132v-33.134z" fill="#9ca1af"/><path d="m82.833 33.133h-49.7c-18.299 0-33.132 14.834-33.132 33.133v364.468c0 18.298 14.834 33.132 33.132 33.132h430.732c18.299 0 33.133-14.834 33.133-33.132v-364.468c0-18.299-14.834-33.133-33.133-33.133h-49.699z" fill="#f2f6fc"/><path d="m463.866 33.133h-23c18.299 0 33.133 14.834 33.133 33.132v364.468c0 18.298-14.834 33.132-33.133 33.132h23c18.299 0 33.133-14.834 33.133-33.132v-364.467c0-18.299-14.834-33.133-33.133-33.133z" fill="#cdd2e1"/><g><path d="m414.167 438.233h-331.333c-4.142 0-7.5-3.358-7.5-7.5s3.358-7.5 7.5-7.5h331.333c4.142 0 7.5 3.358 7.5 7.5 0 4.143-3.358 7.5-7.5 7.5z" fill="#cdd2e1"/></g><g><g><path d="m126.533 388.533h-54.266c-7.444 0-13.5-6.056-13.5-13.5v-54.267c0-7.444 6.056-13.5 13.5-13.5h54.267c7.444 0 13.5 6.056 13.5 13.5v54.267c-.001 7.444-6.057 13.5-13.501 13.5zm-52.766-15h51.267v-51.267h-51.267z" fill="#9ca1af"/></g><g><path d="m225.933 388.533h-54.267c-7.444 0-13.5-6.056-13.5-13.5v-54.267c0-7.444 6.056-13.5 13.5-13.5h54.267c7.444 0 13.5 6.056 13.5 13.5v54.267c0 7.444-6.056 13.5-13.5 13.5zm-52.766-15h51.267v-51.267h-51.267z" fill="#9ca1af"/></g><g><path d="m325.333 388.533h-54.267c-7.444 0-13.5-6.056-13.5-13.5v-54.267c0-7.444 6.056-13.5 13.5-13.5h54.267c7.444 0 13.5 6.056 13.5 13.5v54.267c0 7.444-6.056 13.5-13.5 13.5zm-52.766-15h51.267v-51.267h-51.267z" fill="#9ca1af"/></g><g><path d="m424.733 289.133h-54.267c-7.444 0-13.5-6.056-13.5-13.5v-54.267c0-7.444 6.056-13.5 13.5-13.5h54.267c7.444 0 13.5 6.056 13.5 13.5v54.267c0 7.444-6.056 13.5-13.5 13.5zm-52.766-15h51.267v-51.267h-51.267z" fill="#9ca1af"/></g><g><path d="m424.733 388.533h-54.267c-7.444 0-13.5-6.056-13.5-13.5v-54.267c0-7.444 6.056-13.5 13.5-13.5h54.267c7.444 0 13.5 6.056 13.5 13.5v54.267c0 7.444-6.056 13.5-13.5 13.5zm-52.766-15h51.267v-51.267h-51.267z" fill="#9ca1af"/></g></g><g><path d="m248.5 173.167c-4.142 0-7.5-3.358-7.5-7.5v-16.567c0-4.142 3.358-7.5 7.5-7.5s7.5 3.358 7.5 7.5v16.566c0 4.143-3.358 7.501-7.5 7.501z" fill="#cdd2e1"/></g><g><path d="m314.767 173.167c-4.142 0-7.5-3.358-7.5-7.5v-16.567c0-4.142 3.358-7.5 7.5-7.5s7.5 3.358 7.5 7.5v16.566c0 4.143-3.358 7.501-7.5 7.501z" fill="#cdd2e1"/></g><g><path d="m381.033 173.167c-4.142 0-7.5-3.358-7.5-7.5v-16.567c0-4.142 3.358-7.5 7.5-7.5s7.5 3.358 7.5 7.5v16.566c0 4.143-3.358 7.501-7.5 7.501z" fill="#cdd2e1"/></g><g><path d="m447.3 173.167c-4.142 0-7.5-3.358-7.5-7.5v-16.567c0-4.142 3.358-7.5 7.5-7.5s7.5 3.358 7.5 7.5v16.566c0 4.143-3.358 7.501-7.5 7.501z" fill="#cdd2e1"/></g><g><path d="m182.233 173.167c-4.142 0-7.5-3.358-7.5-7.5v-16.567c0-4.142 3.358-7.5 7.5-7.5s7.5 3.358 7.5 7.5v16.566c0 4.143-3.357 7.501-7.5 7.501z" fill="#cdd2e1"/></g><g><path d="m115.967 173.167c-4.142 0-7.5-3.358-7.5-7.5v-16.567c0-4.142 3.358-7.5 7.5-7.5s7.5 3.358 7.5 7.5v16.566c0 4.143-3.358 7.501-7.5 7.501z" fill="#cdd2e1"/></g><g><path d="m49.7 173.167c-4.142 0-7.5-3.358-7.5-7.5v-16.567c0-4.142 3.358-7.5 7.5-7.5s7.5 3.358 7.5 7.5v16.566c0 4.143-3.358 7.501-7.5 7.501z" fill="#cdd2e1"/></g><g><path d="m93.543 267.714c-1.92 0-3.839-.732-5.303-2.197l-11.714-11.714c-2.929-2.929-2.929-7.678 0-10.606 2.929-2.929 7.678-2.929 10.606 0l6.411 6.411 18.125-18.126c2.929-2.929 7.678-2.929 10.606 0 2.929 2.929 2.929 7.678 0 10.606l-23.429 23.429c-1.463 1.465-3.383 2.197-5.302 2.197z" fill="#06ccab"/></g><g><path d="m192.943 267.714c-1.919 0-3.839-.732-5.303-2.197l-11.714-11.714c-2.929-2.929-2.929-7.678 0-10.606 2.929-2.929 7.678-2.929 10.606 0l6.411 6.411 18.126-18.126c2.929-2.929 7.678-2.929 10.606 0 2.929 2.929 2.929 7.678 0 10.606l-23.429 23.429c-1.464 1.465-3.384 2.197-5.303 2.197z" fill="#06ccab"/></g><g><path d="m292.343 267.714c-1.919 0-3.839-.732-5.303-2.197l-11.714-11.714c-2.929-2.929-2.929-7.678 0-10.606 2.929-2.929 7.678-2.929 10.606 0l6.411 6.411 18.125-18.126c2.929-2.929 7.678-2.929 10.606 0 2.929 2.929 2.929 7.678 0 10.606l-23.429 23.429c-1.463 1.465-3.383 2.197-5.302 2.197z" fill="#06ccab"/></g><path d="m496.999 115.967v-49.701c0-18.299-14.834-33.132-33.133-33.132h-49.699-331.334-49.7c-18.299 0-33.132 14.834-33.132 33.132v49.701z" fill="#19cffc"/><path d="m496.999 115.967v-49.701c0-18.299-14.834-33.132-33.133-33.132h-49.699-331.334-49.7c-18.299 0-33.132 14.834-33.132 33.132v49.701z" fill="#19cffc"/><path d="m463.866 33.133h-23c18.299 0 33.133 14.834 33.133 33.132v49.701h23v-49.7c0-18.299-14.834-33.133-33.133-33.133z" fill="#27ade2"/><g fill="#cdd2e1"><path d="m82.833 49.7c0 9.15 7.417 16.567 16.567 16.567s16.567-7.417 16.567-16.567v-33.133c0-9.15-7.417-16.567-16.567-16.567s-16.567 7.417-16.567 16.567z"/><path d="m231.933 49.7c0 9.15 7.417 16.567 16.567 16.567 9.149 0 16.567-7.417 16.567-16.567v-33.133c0-9.15-7.417-16.567-16.567-16.567s-16.567 7.417-16.567 16.567z"/><path d="m381.033 49.7c0 9.15 7.417 16.567 16.567 16.567 9.149 0 16.567-7.417 16.567-16.567v-33.133c0-9.15-7.418-16.567-16.567-16.567-9.15 0-16.567 7.417-16.567 16.567z"/></g></g></svg>